<svg width="51" height="40" viewBox="0 0 51 40" fill="none" xmlns="http://www.w3.org/2000/svg">
<path fill-rule="evenodd" clip-rule="evenodd" d="M24 2.66667C24 1.19392 22.8061 0 21.3333 0C19.8605 0 18.6667 1.19392 18.6667 2.66667V29.3333C18.6667 30.8061 19.8605 32 21.3333 32C22.8061 32 24 30.8061 24 29.3333V2.66667ZM16 10.6667C16 9.19392 14.8061 8 13.3333 8C11.8606 8 10.6667 9.19392 10.6667 10.6667V29.3333C10.6667 30.8061 11.8606 32 13.3333 32C14.8061 32 16 30.8061 16 29.3333V10.6667ZM32 10.6667C32 9.19392 30.8061 8 29.3333 8C27.8605 8 26.6667 9.19392 26.6667 10.6667V29.3333C26.6667 30.8061 27.8605 32 29.3333 32C30.8061 32 32 30.8061 32 29.3333V10.6667ZM40 21.3333C40 19.8605 38.8061 18.6667 37.3333 18.6667C35.8605 18.6667 34.6667 19.8605 34.6667 21.3333V29.3333C34.6667 30.8061 35.8605 32 37.3333 32C38.8061 32 40 30.8061 40 29.3333V21.3333ZM8 26.6667C8 25.1939 6.80608 24 5.33333 24C3.86059 24 2.66667 25.1939 2.66667 26.6667V29.3333C2.66667 30.8061 3.86059 32 5.33333 32C6.80608 32 8 30.8061 8 29.3333V26.6667ZM48 26.6667C48 25.1939 46.8061 24 45.3333 24C43.8605 24 42.6667 25.1939 42.6667 26.6667V29.3333C42.6667 30.8061 43.8605 32 45.3333 32C46.8061 32 48 30.8061 48 29.3333V26.6667ZM2.66667 34.6667C1.19392 34.6667 0 35.8605 0 37.3333C0 38.8061 1.19392 40 2.66667 40H48C49.4728 40 50.6667 38.8061 50.6667 37.3333C50.6667 35.8605 49.4728 34.6667 48 34.6667H2.66667Z" fill="#A82F50"/>
</svg>
