<svg width="64" height="54" viewBox="0 0 64 54" fill="none" xmlns="http://www.w3.org/2000/svg">
<path d="M61.1444 42.4367H10.8305V1.96899C10.8305 1.47668 10.4367 0.984375 9.84591 0.984375H6.89207C6.39976 0.984375 5.90745 1.37822 5.90745 1.96899V42.4367H1.96899C1.47668 42.4367 0.984375 42.8305 0.984375 43.4213V46.3751C0.984375 46.8675 1.37822 47.3598 1.96899 47.3598H5.90745V51.2982C5.90745 51.7905 6.3013 52.2828 6.89207 52.2828H9.84591C10.3382 52.2828 10.8305 51.889 10.8305 51.2982V47.3598H61.1444C61.6367 47.3598 62.129 46.9659 62.129 46.3751V43.4213C62.129 42.8305 61.6367 42.4367 61.1444 42.4367Z" stroke="#41B6A3" stroke-width="1.96923"/>
<path d="M55.2367 28.5536L45.8828 19.1997" stroke="#41B6A3" stroke-width="1.96923"/>
<path d="M41.453 18.7075L34.0684 28.0614" stroke="#41B6A3" stroke-width="1.96923"/>
<path d="M29.6375 27.5692L18.3145 16.2461" stroke="#41B6A3" stroke-width="1.96923"/>
<path d="M57.2058 33.4765C58.8372 33.4765 60.1596 32.1541 60.1596 30.5227C60.1596 28.8913 58.8372 27.5688 57.2058 27.5688C55.5744 27.5688 54.252 28.8913 54.252 30.5227C54.252 32.1541 55.5744 33.4765 57.2058 33.4765Z" stroke="#41B6A3" stroke-width="1.96923"/>
<path d="M43.4206 19.6919C45.052 19.6919 46.3745 18.3694 46.3745 16.738C46.3745 15.1067 45.052 13.7842 43.4206 13.7842C41.7893 13.7842 40.4668 15.1067 40.4668 16.738C40.4668 18.3694 41.7893 19.6919 43.4206 19.6919Z" stroke="#41B6A3" stroke-width="1.96923"/>
<path d="M31.6062 33.4765C33.2376 33.4765 34.56 32.1541 34.56 30.5227C34.56 28.8913 33.2376 27.5688 31.6062 27.5688C29.9748 27.5688 28.6523 28.8913 28.6523 30.5227C28.6523 32.1541 29.9748 33.4765 31.6062 33.4765Z" stroke="#41B6A3" stroke-width="1.96923"/>
<path d="M16.8367 17.7226C18.468 17.7226 19.7905 16.4002 19.7905 14.7688C19.7905 13.1374 18.468 11.8149 16.8367 11.8149C15.2053 11.8149 13.8828 13.1374 13.8828 14.7688C13.8828 16.4002 15.2053 17.7226 16.8367 17.7226Z" stroke="#41B6A3" stroke-width="1.96923"/>
</svg>
