<svg width="48" height="43" viewBox="0 0 48 43" fill="none" xmlns="http://www.w3.org/2000/svg">
<path fill-rule="evenodd" clip-rule="evenodd" d="M2.66667 0C4.13941 0 5.33333 1.19392 5.33333 2.66667V37.3333H45.3333C46.8061 37.3333 48 38.5272 48 40C48 41.4728 46.8061 42.6667 45.3333 42.6667H2.66667C1.19392 42.6667 0 41.4728 0 40V2.66667C0 1.19392 1.19392 0 2.66667 0ZM21.3333 17.3333C21.3333 19.5424 19.5424 21.3333 17.3333 21.3333C15.1242 21.3333 13.3333 19.5424 13.3333 17.3333C13.3333 15.1242 15.1242 13.3333 17.3333 13.3333C19.5424 13.3333 21.3333 15.1242 21.3333 17.3333ZM28 26.6667C30.2091 26.6667 32 24.8757 32 22.6667C32 20.4576 30.2091 18.6667 28 18.6667C25.7909 18.6667 24 20.4576 24 22.6667C24 24.8757 25.7909 26.6667 28 26.6667ZM45.3333 4C45.3333 6.20915 43.5424 8 41.3333 8C39.1243 8 37.3333 6.20915 37.3333 4C37.3333 1.79085 39.1243 0 41.3333 0C43.5424 0 45.3333 1.79085 45.3333 4ZM28 16C30.2091 16 32 14.2091 32 12C32 9.79085 30.2091 8 28 8C25.7909 8 24 9.79085 24 12C24 14.2091 25.7909 16 28 16ZM42.6667 22.6667C42.6667 24.8757 40.8757 26.6667 38.6667 26.6667C36.4576 26.6667 34.6667 24.8757 34.6667 22.6667C34.6667 20.4576 36.4576 18.6667 38.6667 18.6667C40.8757 18.6667 42.6667 20.4576 42.6667 22.6667ZM12 32C14.2091 32 16 30.2091 16 28C16 25.7909 14.2091 24 12 24C9.79085 24 8 25.7909 8 28C8 30.2091 9.79085 32 12 32Z" fill="#7441B6"/>
</svg>
