<svg width="47" height="47" viewBox="0 0 47 47" fill="none" xmlns="http://www.w3.org/2000/svg">
<path d="M2.66667 44V0H0V46.6667H46.6667V44H2.66667Z" fill="#DDD1D0"/>
<path d="M9.33268 9.33333C10.8054 9.33333 11.9993 8.13943 11.9993 6.66667C11.9993 5.19391 10.8054 4 9.33268 4C7.85992 4 6.66602 5.19391 6.66602 6.66667C6.66602 8.13943 7.85992 9.33333 9.33268 9.33333Z" fill="#D69200"/>
<path d="M33.3327 9.33333C34.8054 9.33333 35.9993 8.13943 35.9993 6.66667C35.9993 5.19391 34.8054 4 33.3327 4C31.8599 4 30.666 5.19391 30.666 6.66667C30.666 8.13943 31.8599 9.33333 33.3327 9.33333Z" fill="#D69200"/>
<path d="M42.6667 9.33333C44.1394 9.33333 45.3333 8.13943 45.3333 6.66667C45.3333 5.19391 44.1394 4 42.6667 4C41.1939 4 40 5.19391 40 6.66667C40 8.13943 41.1939 9.33333 42.6667 9.33333Z" fill="#D69200"/>
<path d="M21.3333 12.0002C24.2789 12.0002 26.6667 9.61235 26.6667 6.66683C26.6667 3.72131 24.2789 1.3335 21.3333 1.3335C18.3878 1.3335 16 3.72131 16 6.66683C16 9.61235 18.3878 12.0002 21.3333 12.0002Z" fill="#D69200"/>
<path d="M9.33268 38.6668C10.8054 38.6668 11.9993 37.4729 11.9993 36.0002C11.9993 34.5274 10.8054 33.3335 9.33268 33.3335C7.85992 33.3335 6.66602 34.5274 6.66602 36.0002C6.66602 37.4729 7.85992 38.6668 9.33268 38.6668Z" fill="#D69200"/>
<path d="M30.6667 38.6668C32.1394 38.6668 33.3333 37.4729 33.3333 36.0002C33.3333 34.5274 32.1394 33.3335 30.6667 33.3335C29.1939 33.3335 28 34.5274 28 36.0002C28 37.4729 29.1939 38.6668 30.6667 38.6668Z" fill="#D69200"/>
<path d="M20 40C22.2091 40 24 38.2091 24 36C24 33.7909 22.2091 32 20 32C17.7909 32 16 33.7909 16 36C16 38.2091 17.7909 40 20 40Z" fill="#D69200"/>
<path d="M41.3333 41.3337C44.2789 41.3337 46.6667 38.9458 46.6667 36.0003C46.6667 33.0548 44.2789 30.667 41.3333 30.667C38.3878 30.667 36 33.0548 36 36.0003C36 38.9458 38.3878 41.3337 41.3333 41.3337Z" fill="#D69200"/>
<path d="M9.33268 24.0003C10.8054 24.0003 11.9993 22.8064 11.9993 21.3337C11.9993 19.8609 10.8054 18.667 9.33268 18.667C7.85992 18.667 6.66602 19.8609 6.66602 21.3337C6.66602 22.8064 7.85992 24.0003 9.33268 24.0003Z" fill="#D69200"/>
<path d="M42.6667 24.0003C44.1394 24.0003 45.3333 22.8064 45.3333 21.3337C45.3333 19.8609 44.1394 18.667 42.6667 18.667C41.1939 18.667 40 19.8609 40 21.3337C40 22.8064 41.1939 24.0003 42.6667 24.0003Z" fill="#D69200"/>
<path d="M33.332 25.3335C35.5412 25.3335 37.332 23.5426 37.332 21.3335C37.332 19.1244 35.5412 17.3335 33.332 17.3335C31.1229 17.3335 29.332 19.1244 29.332 21.3335C29.332 23.5426 31.1229 25.3335 33.332 25.3335Z" fill="#D69200"/>
</svg>
