<svg width="62" height="63" viewBox="0 0 62 63" fill="none" xmlns="http://www.w3.org/2000/svg">
<path d="M53.3987 32.1973C53.2947 44.6322 43.1755 54.7516 30.7404 54.8555C18.3035 54.9593 8.18511 44.4762 8.08255 32.1973C8.03899 26.9877 -0.043387 26.9836 0.000175464 32.1973C0.0666755 40.1599 3.11586 47.6818 8.5608 53.4805C13.9625 59.2335 21.5698 62.4466 29.3806 62.9036C37.3347 63.3695 45.0914 60.3483 51.0855 55.2303C57.0909 50.1028 60.5017 42.6488 61.3459 34.8993C61.4437 34.0023 61.4734 33.099 61.4809 32.1974C61.5244 26.9836 53.4422 26.9877 53.3987 32.1973Z" fill="#4A5699"/>
<path d="M8.08255 30.741C8.18643 18.3057 18.3052 8.18636 30.7404 8.08249C35.9501 8.03892 35.9541 -0.043325 30.7404 0.000174964C22.6452 0.0677375 14.9657 3.22311 9.15386 8.85518C3.27855 14.5484 0.0680505 22.6093 0.000175465 30.741C-0.043387 35.9549 8.03893 35.9504 8.08255 30.741Z" fill="#C45FA9"/>
<path d="M23.6245 38.0204C20.2391 33.5038 20.739 28.3894 24.9508 24.7536C28.8902 21.3529 34.7168 22.641 38.0494 26.7824C39.4326 28.5009 42.3332 28.2137 43.7645 26.7824C45.4466 25.1001 45.1441 22.7818 43.7645 21.0674C38.1886 14.1387 27.5362 12.7781 20.4134 18.1171C12.9873 23.6835 10.9633 34.5185 16.6456 42.0995C17.9641 43.8584 20.1101 44.7587 22.1747 43.5492C23.9121 42.5316 24.9489 39.7872 23.6245 38.0204Z" fill="#E5594F"/>
<path d="M37.8579 26.5309C39.7749 29.0886 40.2706 31.0026 39.994 33.9849C40.0387 33.6196 40.0195 33.6856 39.9363 34.1832C39.855 34.6063 39.7326 35.0199 39.6109 35.4322C39.3538 36.3007 39.4245 36.0509 39.0015 36.8532C38.2529 38.2729 37.5344 38.9909 36.172 40.0873C34.4534 41.4705 34.7405 44.3709 36.172 45.8024C37.8542 47.4844 40.1727 47.1821 41.887 45.8024C48.8151 40.2259 50.1753 29.5743 44.8365 22.4515C43.5183 20.6926 41.3721 19.7924 39.3074 21.0017C37.57 22.0197 36.5334 24.7638 37.8579 26.5309Z" fill="#F39A2B"/>
</svg>
